<svg xmlns="http://www.w3.org/2000/svg">
    <symbol id="bin" viewBox="0 0 24 24" fill="none"><path d="M3.03 8.89c-.48-3.2-.72-4.8.18-5.85C4.11 2 5.73 2 8.97 2h6.06c3.24 0 4.86 0 5.76 1.04.9 1.04.66 2.65.18 5.85l-1.2 8c-.37 2.44-.55 3.66-1.4 4.38-.84.73-2.07.73-4.54.73h-3.66c-2.47 0-3.7 0-4.54-.73-.85-.72-1.03-1.94-1.4-4.38l-1.2-8Z" stroke="currentColor" stroke-width="1.5"/><path d="m8 6-4.5 5 7.5 8m3-13L4 16M20 6 7 19m6 0 7.5-8L16 6m-6 0 10 10M4 6l13 13" stroke="currentColor" stroke-width="1.5" stroke-linejoin="round"/><path d="M21 6H3M19 19H5" stroke="currentColor" stroke-width="1.5" stroke-linecap="round"/></symbol>
</svg>
